<?xml version="1.0" standalone="no"?>
<!DOCTYPE svg PUBLIC "-//W3C//DTD SVG 20010904//EN"
 "http://www.w3.org/TR/2001/REC-SVG-20010904/DTD/svg10.dtd">
<svg version="1.0" xmlns="http://www.w3.org/2000/svg"
 width="96px" height="96px" viewBox="0 0 909.000000 909.000000"
 preserveAspectRatio="xMidYMid meet">

<g transform="translate(0.000000,909.000000) scale(0.100000,-0.100000)"
fill="#000000" stroke="none">
<path d="M0 4545 l0 -4545 4545 0 4545 0 0 4545 0 4545 -4545 0 -4545 0 0
-4545z m4244 2376 c3 -4 27 -16 53 -26 26 -10 63 -31 81 -47 18 -15 39 -28 46
-28 7 0 34 -18 59 -40 25 -22 54 -40 64 -40 10 0 44 22 75 48 59 49 71 53 233
81 126 21 138 21 204 -13 137 -69 190 -122 269 -272 16 -30 40 -123 51 -198 9
-61 7 -77 -14 -145 -36 -120 -50 -151 -99 -225 -25 -39 -48 -78 -51 -87 -3
-10 -19 -24 -35 -31 -17 -7 -30 -19 -30 -26 0 -7 -8 -16 -17 -19 -10 -4 -40
-22 -66 -41 -36 -26 -51 -32 -60 -23 -6 6 -18 11 -26 11 -12 0 -12 -3 -3 -12
18 -18 15 -23 -30 -54 -62 -41 -144 -133 -159 -176 -10 -30 -15 -36 -26 -27
-7 6 -13 19 -14 28 0 10 -4 7 -10 -8 -7 -18 -5 -28 7 -42 15 -17 13 -26 -35
-141 -59 -142 -66 -198 -27 -198 28 0 119 52 191 110 28 22 78 61 111 87 76
59 139 153 211 316 50 112 178 337 192 337 4 0 32 22 62 49 29 26 81 62 114
78 33 17 74 38 90 46 107 56 368 21 430 -57 11 -14 25 -26 31 -26 6 0 20 -10
31 -22 25 -26 83 -136 83 -156 0 -7 9 -41 21 -75 15 -45 19 -76 15 -112 -19
-171 -25 -208 -35 -218 -6 -6 -11 -24 -11 -39 0 -21 9 -33 40 -53 22 -14 43
-25 47 -25 16 0 113 -92 113 -106 0 -8 4 -14 9 -14 6 0 28 -37 51 -82 l42 -83
-4 -100 c-5 -116 -32 -195 -67 -195 -17 0 -19 -5 -14 -35 6 -36 -16 -75 -41
-75 -7 0 -16 -13 -22 -28 -13 -35 -54 -66 -159 -123 l-80 -43 -155 0 c-135 0
-163 3 -214 22 -32 12 -62 19 -67 16 -13 -8 -125 58 -237 139 -44 31 -91 51
-201 83 -7 2 -10 11 -7 19 3 8 9 22 12 31 5 12 2 15 -12 12 -12 -2 -20 -13
-22 -30 l-3 -27 -179 -3 c-201 -3 -221 -9 -179 -54 13 -15 60 -53 104 -85 44
-32 108 -79 143 -106 61 -47 62 -48 35 -53 -38 -7 -17 -18 27 -15 19 2 89 -3
155 -11 66 -8 166 -19 223 -25 80 -9 102 -15 102 -26 0 -12 9 -14 42 -10 40 5
118 -16 118 -33 0 -4 14 -10 30 -14 17 -3 43 -18 58 -33 15 -15 47 -38 72 -50
61 -31 86 -67 71 -99 -13 -29 -15 -74 -3 -74 4 0 18 7 30 16 46 32 60 14 112
-144 25 -78 28 -177 6 -220 -9 -17 -16 -39 -16 -48 0 -29 -78 -123 -115 -138
-19 -8 -35 -20 -35 -26 0 -6 -8 -10 -17 -8 -10 2 -18 -3 -19 -9 -1 -7 -2 -18
-3 -25 0 -6 -4 -9 -7 -5 -3 3 -17 -4 -30 -16 -36 -31 -111 -49 -151 -35 -25 9
-34 8 -47 -5 -17 -17 -117 -34 -135 -22 -21 12 -50 -6 -60 -38 -5 -18 -15 -59
-22 -92 -6 -33 -15 -62 -19 -65 -4 -3 -13 -17 -21 -31 -37 -69 -151 -169 -221
-193 -100 -33 -258 -42 -293 -16 -5 4 -26 11 -45 15 -45 9 -111 49 -169 102
-25 23 -60 55 -77 70 -17 15 -37 44 -45 63 -7 19 -18 40 -25 45 -14 12 -44
137 -44 182 0 17 -4 34 -9 37 -15 10 -20 175 -6 220 7 22 21 70 30 106 10 36
24 82 31 103 29 79 17 193 -41 382 -41 134 -80 215 -103 215 -20 0 -72 -59
-72 -81 0 -6 -8 -26 -19 -43 -10 -17 -31 -65 -46 -106 -15 -41 -32 -80 -37
-86 -9 -12 -28 -144 -22 -155 2 -3 6 -61 9 -129 3 -68 9 -160 15 -205 14 -118
15 -244 1 -295 -22 -84 -54 -185 -61 -195 -4 -5 -13 -27 -20 -49 -7 -21 -31
-58 -54 -81 -22 -24 -48 -51 -56 -60 -23 -26 -129 -84 -174 -97 -74 -20 -182
-21 -239 -3 -29 10 -59 21 -67 26 -8 5 -25 13 -37 19 -13 5 -23 14 -23 19 0 6
-15 21 -33 33 -58 39 -146 149 -163 203 -9 27 -21 55 -26 62 -6 7 -12 34 -14
60 -7 70 -14 75 -99 67 -89 -8 -154 6 -250 54 -104 53 -170 113 -194 177 -11
29 -20 61 -20 71 0 11 -4 37 -10 59 -17 65 -13 175 9 251 27 91 60 156 82 162
10 2 21 15 24 28 6 23 78 94 96 94 4 0 29 15 55 33 50 34 115 62 218 94 48 14
94 18 235 18 l175 0 90 44 c50 24 104 54 122 67 65 49 164 114 172 114 11 0
51 54 51 69 0 5 -17 15 -37 20 -21 5 -67 17 -103 26 -36 9 -117 19 -181 21
-96 4 -129 1 -200 -16 -46 -12 -88 -26 -94 -31 -5 -5 -15 -9 -22 -9 -15 0 -72
-36 -150 -93 -57 -43 -143 -75 -143 -54 0 7 -7 3 -16 -8 -14 -19 -26 -20 -202
-20 -202 1 -237 7 -336 56 -108 55 -236 204 -236 275 0 18 -4 36 -10 39 -15
10 -12 37 11 84 16 33 18 49 11 70 -6 17 -6 34 0 44 5 9 6 17 2 17 -3 0 -1 7
7 16 7 9 21 39 31 67 10 28 25 55 33 60 8 4 15 14 15 22 0 7 19 28 43 45 23
18 59 51 79 73 20 22 52 45 70 52 31 10 33 13 31 54 -1 25 -7 47 -12 50 -20
13 -31 65 -31 150 0 80 6 117 30 176 4 11 12 32 18 46 12 30 129 159 144 159
5 0 24 10 41 23 30 21 75 47 83 47 2 0 1 -6 -2 -14 -4 -11 0 -13 15 -9 12 3
21 11 21 17 0 17 112 40 162 33 23 -3 47 -12 53 -19 6 -8 34 -14 68 -15 70 -2
103 -23 86 -55 -6 -11 -8 -22 -5 -25 3 -3 11 6 17 21 7 14 15 26 18 26 21 0
159 -117 253 -213 33 -34 49 -60 53 -85 4 -20 13 -49 20 -63 8 -14 19 -50 24
-80 16 -92 28 -130 65 -204 28 -57 53 -88 118 -148 165 -151 261 -218 282
-197 27 27 -28 318 -79 416 -8 16 -15 32 -15 36 0 4 -18 38 -41 74 -22 37 -38
73 -35 81 4 10 0 13 -14 11 -21 -3 -130 103 -130 128 0 8 -6 14 -13 14 -14 0
-20 6 -89 95 -26 33 -54 78 -63 100 -9 22 -23 54 -30 70 -27 61 -55 196 -55
268 0 86 22 160 71 243 43 72 134 168 150 159 6 -4 15 -2 20 6 4 7 25 19 46
25 44 14 289 18 297 5z"/>
<path d="M4010 6875 c0 -19 11 -19 36 0 18 14 18 14 -8 15 -18 0 -28 -5 -28
-15z"/>
<path d="M4941 6837 c-6 -8 -8 -17 -4 -20 13 -14 43 -6 53 13 9 17 8 20 -13
20 -14 0 -30 -6 -36 -13z"/>
<path d="M4948 6745 c2 -14 8 -22 13 -19 5 3 5 14 -1 25 -14 26 -18 24 -12 -6z"/>
<path d="M4478 6746 c-13 -9 -14 -16 -6 -24 6 -6 11 -25 10 -42 0 -19 4 -30
13 -30 7 0 20 -3 29 -6 24 -9 19 10 -10 45 -17 21 -23 37 -19 51 7 23 6 24
-17 6z"/>
<path d="M4897 6683 c-14 -13 -6 -20 24 -21 29 -1 30 0 13 13 -22 16 -28 18
-37 8z"/>
<path d="M4410 6670 c0 -5 10 -10 23 -10 18 0 19 2 7 10 -19 13 -30 13 -30 0z"/>
<path d="M4560 6534 c0 -8 5 -12 10 -9 6 3 10 10 10 16 0 5 -4 9 -10 9 -5 0
-10 -7 -10 -16z"/>
<path d="M4590 6510 c-6 -11 -22 -23 -35 -26 -31 -8 -34 -43 -5 -69 25 -22 26
-55 3 -55 -16 -1 -16 -2 1 -12 16 -9 23 -7 40 14 12 14 30 28 41 32 26 7 28
39 8 88 -18 44 -39 55 -53 28z"/>
<path d="M4810 6490 c0 -5 5 -10 11 -10 5 0 7 5 4 10 -3 6 -8 10 -11 10 -2 0
-4 -4 -4 -10z"/>
<path d="M4790 6447 c0 -7 9 -18 20 -25 23 -14 26 -5 6 21 -16 20 -26 22 -26
4z"/>
<path d="M4427 6338 c-5 -17 3 -48 13 -48 4 0 7 14 8 30 1 30 -13 41 -21 18z"/>
<path d="M4490 6328 c0 -7 5 -20 10 -28 8 -12 10 -9 10 13 0 15 -4 27 -10 27
-5 0 -10 -6 -10 -12z"/>
<path d="M4650 6320 c0 -5 5 -10 10 -10 6 0 10 5 10 10 0 6 -4 10 -10 10 -5 0
-10 -4 -10 -10z"/>
<path d="M4370 6233 c0 -25 15 -38 25 -22 4 6 0 18 -9 27 -15 15 -16 15 -16
-5z"/>
<path d="M5016 6231 c-13 -5 -16 -10 -8 -15 11 -6 52 9 52 19 0 7 -22 5 -44
-4z"/>
<path d="M4815 6184 c4 -16 7 -52 6 -81 -2 -56 8 -70 38 -51 19 12 19 12 0 36
-25 33 -25 55 1 47 23 -7 28 13 5 21 -8 4 -15 12 -15 20 0 7 -10 18 -21 25
-20 10 -21 9 -14 -17z"/>
<path d="M4490 6190 c0 -5 4 -10 9 -10 6 0 13 5 16 10 3 6 -1 10 -9 10 -9 0
-16 -4 -16 -10z"/>
<path d="M5035 6190 c-3 -5 -1 -10 4 -10 6 0 11 5 11 10 0 6 -2 10 -4 10 -3 0
-8 -4 -11 -10z"/>
<path d="M3309 6176 c-8 -9 1 -55 12 -62 10 -6 10 10 0 44 -3 13 -9 21 -12 18z"/>
<path d="M3260 6149 c0 -5 5 -7 10 -4 6 3 10 8 10 11 0 2 -4 4 -10 4 -5 0 -10
-5 -10 -11z"/>
<path d="M3850 6140 c0 -5 12 -10 26 -10 14 0 23 4 19 10 -3 6 -15 10 -26 10
-10 0 -19 -4 -19 -10z"/>
<path d="M4437 6139 c7 -7 15 -10 18 -7 3 3 -2 9 -12 12 -14 6 -15 5 -6 -5z"/>
<path d="M4730 6140 c0 -5 5 -10 10 -10 6 0 10 5 10 10 0 6 -4 10 -10 10 -5 0
-10 -4 -10 -10z"/>
<path d="M4380 6134 c0 -14 33 -74 41 -74 19 0 19 21 0 42 -12 12 -21 25 -21
30 0 4 -4 8 -10 8 -5 0 -10 -3 -10 -6z"/>
<path d="M3150 6100 c-6 -11 -17 -20 -24 -20 -14 0 -26 -21 -26 -46 0 -9 11
-14 29 -14 24 0 31 5 36 30 4 16 4 34 1 39 -4 5 -1 11 6 13 9 3 9 6 1 11 -7 5
-17 -1 -23 -13z"/>
<path d="M3920 6106 c0 -9 5 -16 10 -16 6 0 10 4 10 9 0 6 -4 13 -10 16 -5 3
-10 -1 -10 -9z"/>
<path d="M3216 6087 c-8 -32 2 -34 29 -6 l25 24 -24 1 c-17 1 -26 -5 -30 -19z"/>
<path d="M4720 6100 c0 -5 5 -10 11 -10 5 0 7 5 4 10 -3 6 -8 10 -11 10 -2 0
-4 -4 -4 -10z"/>
<path d="M4940 6061 c0 -7 13 -25 28 -39 16 -15 33 -36 39 -47 21 -38 21 -10
0 38 -12 27 -26 46 -33 43 -6 -2 -17 1 -23 7 -8 8 -11 8 -11 -2z"/>
<path d="M3051 6001 c-1 -24 2 -32 9 -25 7 7 7 19 1 35 -9 23 -10 22 -10 -10z"/>
<path d="M4786 5993 c-9 -55 -7 -83 4 -83 6 0 10 9 10 19 0 11 6 22 13 25 9 5
9 7 0 12 -8 3 -10 16 -6 35 3 16 1 29 -4 29 -6 0 -13 -17 -17 -37z"/>
<path d="M4850 5992 c0 -16 7 -37 15 -48 19 -25 19 -48 0 -40 -26 10 -16 -9
12 -21 47 -22 55 -11 29 43 -7 16 -20 44 -27 62 -17 39 -29 41 -29 4z"/>
<path d="M4726 5988 c-11 -42 -7 -55 9 -34 16 22 20 56 6 56 -5 0 -11 -10 -15
-22z"/>
<path d="M5515 5996 c-11 -9 -36 -16 -55 -16 l-35 -1 27 -22 c66 -54 89 -68
129 -82 23 -8 52 -15 66 -15 29 0 80 -25 85 -42 3 -7 21 -11 48 -10 23 1 49
-3 57 -9 17 -15 20 -12 28 34 6 30 4 37 -9 37 -9 0 -21 11 -26 25 -11 29 -11
29 -44 14 -19 -9 -29 -9 -39 -1 -7 6 -23 9 -35 5 -18 -4 -22 -1 -22 16 0 22
-12 25 -45 12 -25 -11 -66 10 -92 44 -17 24 -20 24 -38 11z m85 -76 c0 -5 -4
-10 -10 -10 -5 0 -10 5 -10 10 0 6 5 10 10 10 6 0 10 -4 10 -10z"/>
<path d="M4640 5980 c0 -5 5 -10 10 -10 6 0 10 5 10 10 0 6 -4 10 -10 10 -5 0
-10 -4 -10 -10z"/>
<path d="M2980 5948 c0 -17 3 -19 9 -9 5 7 15 17 22 22 10 6 8 9 -8 9 -17 0
-23 -6 -23 -22z"/>
<path d="M2923 5933 c-21 -8 -35 -22 -39 -38 -3 -14 -10 -25 -15 -25 -11 0 23
-59 39 -65 15 -6 16 31 0 41 -7 5 0 16 21 34 22 17 32 33 29 46 -3 19 -5 20
-35 7z"/>
<path d="M3490 5880 c0 -16 7 -20 30 -20 37 0 39 13 5 28 -34 16 -35 15 -35
-8z"/>
<path d="M2950 5854 c0 -20 2 -21 25 -11 29 14 28 30 -3 32 -17 1 -22 -4 -22
-21z"/>
<path d="M4166 5872 c-3 -6 -1 -14 5 -17 15 -10 25 3 12 16 -7 7 -13 7 -17 1z"/>
<path d="M4654 5865 c-9 -23 14 -45 26 -25 5 8 8 19 7 24 -6 17 -27 18 -33 1z"/>
<path d="M4730 5871 c0 -6 5 -13 11 -17 7 -4 9 -22 6 -47 -5 -36 -4 -38 10
-24 14 14 15 22 4 57 -10 35 -31 56 -31 31z"/>
<path d="M4840 5831 c0 -6 4 -13 10 -16 6 -3 7 1 4 9 -7 18 -14 21 -14 7z"/>
<path d="M2759 5789 c-31 -33 -38 -69 -15 -69 8 0 17 13 21 29 3 16 16 33 30
39 14 7 25 16 25 22 0 20 -33 9 -61 -21z"/>
<path d="M4234 5797 c3 -10 6 -23 6 -28 0 -5 5 -9 10 -9 14 0 12 13 -6 36 -14
17 -15 17 -10 1z"/>
<path d="M4850 5792 c0 -5 9 -17 20 -27 23 -21 27 -4 4 19 -17 18 -24 20 -24
8z"/>
<path d="M4561 5774 c0 -11 3 -14 6 -6 3 7 2 16 -1 19 -3 4 -6 -2 -5 -13z"/>
<path d="M6038 5763 c-9 -10 -24 -24 -33 -31 -23 -20 -14 -45 20 -56 17 -4 42
-15 57 -22 14 -8 31 -14 37 -14 17 0 14 70 -3 76 -8 3 -19 19 -25 35 -11 33
-29 37 -53 12z m2 -53 c0 -5 -4 -10 -10 -10 -5 0 -10 5 -10 10 0 6 5 10 10 10
6 0 10 -4 10 -10z"/>
<path d="M2835 5760 c3 -5 8 -10 11 -10 2 0 4 5 4 10 0 6 -5 10 -11 10 -5 0
-7 -4 -4 -10z"/>
<path d="M3620 5745 c0 -8 5 -15 10 -15 6 0 10 7 10 15 0 8 -4 15 -10 15 -5 0
-10 -7 -10 -15z"/>
<path d="M4726 5730 c9 -16 19 -32 24 -35 4 -3 11 -23 15 -45 4 -22 10 -40 15
-40 10 0 -9 104 -21 108 -5 2 -9 12 -9 23 0 12 -7 19 -19 19 -18 0 -19 -2 -5
-30z"/>
<path d="M5265 5740 c-3 -5 1 -10 10 -10 9 0 13 5 10 10 -3 6 -8 10 -10 10 -2
0 -7 -4 -10 -10z"/>
<path d="M5355 5739 c-10 -15 3 -25 16 -12 7 7 7 13 1 17 -6 3 -14 1 -17 -5z"/>
<path d="M2895 5700 c3 -5 8 -10 11 -10 2 0 4 5 4 10 0 6 -5 10 -11 10 -5 0
-7 -4 -4 -10z"/>
<path d="M2696 5691 c-12 -5 -15 -10 -9 -14 6 -4 16 0 23 8 14 17 13 17 -14 6z"/>
<path d="M6163 5676 c15 -32 30 -34 25 -4 -2 13 -11 24 -20 26 -14 3 -15 0 -5
-22z"/>
<path d="M2700 5640 c0 -5 5 -10 10 -10 6 0 10 5 10 10 0 6 -4 10 -10 10 -5 0
-10 -4 -10 -10z"/>
<path d="M3612 5633 c5 -26 38 -29 38 -4 0 15 -6 21 -21 21 -14 0 -19 -5 -17
-17z"/>
<path d="M4666 5544 c-4 -9 -4 -19 -2 -21 8 -8 26 8 26 23 0 19 -16 18 -24 -2z"/>
<path d="M6060 5470 c0 -5 12 -10 28 -10 21 0 24 2 12 10 -20 13 -40 13 -40 0z"/>
<path d="M5166 5413 c-4 -5 -18 -8 -29 -8 -15 0 -22 -6 -22 -20 0 -13 -7 -20
-20 -20 -14 0 -19 6 -17 18 2 9 -2 17 -8 17 -5 0 -10 -13 -10 -29 0 -27 2 -28
48 -28 26 0 53 -2 61 -4 20 -6 35 52 18 69 -7 7 -17 9 -21 5z"/>
<path d="M2758 5403 c-10 -3 -15 -10 -11 -19 6 -17 29 -19 39 -3 8 14 -7 27
-28 22z"/>
<path d="M5230 5376 c0 -17 14 -29 23 -20 8 8 -3 34 -14 34 -5 0 -9 -6 -9 -14z"/>
<path d="M2530 5340 c0 -5 5 -10 10 -10 6 0 10 5 10 10 0 6 -4 10 -10 10 -5 0
-10 -4 -10 -10z"/>
<path d="M5237 5334 c-14 -14 -8 -81 7 -81 26 0 36 41 17 66 -9 12 -20 19 -24
15z"/>
<path d="M5082 5318 c5 -15 28 -23 28 -10 0 5 -7 13 -16 16 -10 4 -14 1 -12
-6z"/>
<path d="M5762 5258 c7 -19 38 -22 38 -4 0 10 -9 16 -21 16 -12 0 -19 -5 -17
-12z"/>
<path d="M5137 5233 c-12 -11 -8 -23 8 -23 8 0 15 7 15 15 0 16 -12 20 -23 8z"/>
<path d="M3108 5175 c2 -19 6 -35 8 -35 2 0 4 16 4 35 0 19 -4 35 -8 35 -4 0
-6 -16 -4 -35z"/>
<path d="M5455 5080 c3 -5 11 -10 16 -10 6 0 7 5 4 10 -3 6 -11 10 -16 10 -6
0 -7 -4 -4 -10z"/>
<path d="M2830 5060 c0 -5 5 -10 11 -10 5 0 7 5 4 10 -3 6 -8 10 -11 10 -2 0
-4 -4 -4 -10z"/>
<path d="M5270 5026 c0 -9 5 -16 10 -16 6 0 10 4 10 9 0 6 -4 13 -10 16 -5 3
-10 -1 -10 -9z"/>
<path d="M2840 5008 c0 -11 7 -14 26 -10 16 3 36 -3 54 -17 38 -27 50 -27 50
4 0 22 -4 25 -32 24 -18 0 -48 3 -65 7 -26 5 -33 3 -33 -8z"/>
<path d="M3420 4967 c0 -26 4 -47 9 -47 8 0 3 79 -5 89 -2 2 -4 -17 -4 -42z"/>
<path d="M2840 4970 c0 -5 5 -10 10 -10 6 0 10 5 10 10 0 6 -4 10 -10 10 -5 0
-10 -4 -10 -10z"/>
<path d="M3955 4970 c27 -12 43 -12 25 0 -8 5 -22 9 -30 9 -10 0 -8 -3 5 -9z"/>
<path d="M2670 4949 c0 -11 5 -17 10 -14 6 3 10 13 10 21 0 8 -4 14 -10 14 -5
0 -10 -9 -10 -21z"/>
<path d="M5665 4960 c3 -5 8 -10 11 -10 2 0 4 5 4 10 0 6 -5 10 -11 10 -5 0
-7 -4 -4 -10z"/>
<path d="M6107 4963 c-4 -3 -7 -15 -7 -25 0 -17 1 -17 20 2 11 11 20 22 20 25
0 7 -26 6 -33 -2z"/>
<path d="M2757 4936 c-22 -17 -22 -26 2 -26 10 0 21 7 24 15 8 20 -5 26 -26
11z"/>
<path d="M6156 4919 c-19 -19 -17 -37 3 -24 14 8 34 45 24 44 -4 0 -17 -9 -27
-20z"/>
<path d="M2670 4911 c0 -6 5 -13 10 -16 6 -3 10 1 10 9 0 9 -4 16 -10 16 -5 0
-10 -4 -10 -9z"/>
<path d="M6176 4873 c-3 -10 -9 -25 -12 -33 -3 -8 4 -4 15 10 22 27 26 40 12
40 -5 0 -11 -8 -15 -17z"/>
<path d="M6410 4880 c0 -5 7 -10 16 -10 8 0 12 5 9 10 -3 6 -10 10 -16 10 -5
0 -9 -4 -9 -10z"/>
<path d="M2677 4854 c-3 -16 -1 -34 4 -40 5 -6 7 -20 3 -30 -5 -18 -5 -18 10
0 19 24 20 43 2 75 l-13 24 -6 -29z"/>
<path d="M2747 4873 c-2 -5 -7 -21 -11 -38 -4 -16 -9 -38 -12 -47 -7 -23 7
-23 34 0 17 15 20 26 15 55 -5 35 -16 47 -26 30z"/>
<path d="M3141 4804 c0 -11 3 -14 6 -6 3 7 2 16 -1 19 -3 4 -6 -2 -5 -13z"/>
<path d="M5526 4804 c-4 -10 -1 -14 6 -12 15 5 23 28 10 28 -5 0 -13 -7 -16
-16z"/>
<path d="M3285 4690 c3 -5 8 -10 11 -10 2 0 4 5 4 10 0 6 -5 10 -11 10 -5 0
-7 -4 -4 -10z"/>
<path d="M3000 4659 c-15 -28 -4 -38 15 -13 17 22 19 34 5 34 -5 0 -14 -9 -20
-21z"/>
<path d="M4734 4609 c-3 -6 -1 -16 5 -22 8 -8 11 -5 11 11 0 24 -5 28 -16 11z"/>
<path d="M5760 4595 c7 -8 17 -15 22 -15 6 0 5 7 -2 15 -7 8 -17 15 -22 15 -6
0 -5 -7 2 -15z"/>
<path d="M4382 4533 c-21 -8 -4 -21 24 -15 19 3 22 7 12 13 -14 10 -17 10 -36
2z"/>
<path d="M4117 4509 c4 -13 8 -18 11 -10 2 7 -1 18 -6 23 -8 8 -9 4 -5 -13z"/>
<path d="M5780 4359 c0 -5 5 -7 10 -4 6 3 10 8 10 11 0 2 -4 4 -10 4 -5 0 -10
-5 -10 -11z"/>
<path d="M3910 4290 l0 -33 25 23 c28 26 32 35 11 27 -7 -3 -19 0 -25 6 -8 8
-11 2 -11 -23z"/>
<path d="M3877 4293 c-4 -3 -7 -11 -7 -17 0 -6 5 -5 12 2 6 6 9 14 7 17 -3 3
-9 2 -12 -2z"/>
<path d="M5466 4205 c-11 -8 -18 -17 -15 -19 7 -7 49 13 49 24 0 14 -11 12
-34 -5z"/>
<path d="M2923 4153 c-30 -12 0 -83 34 -83 6 0 14 -7 17 -16 3 -8 10 -13 15
-9 14 8 2 35 -14 35 -9 0 -13 11 -13 29 1 44 -10 56 -39 44z"/>
<path d="M3666 4097 c-8 -30 1 -34 25 -10 21 20 21 20 1 25 -15 4 -22 0 -26
-15z"/>
<path d="M4181 4104 c0 -11 3 -14 6 -6 3 7 2 16 -1 19 -3 4 -6 -2 -5 -13z"/>
<path d="M2931 4014 c0 -11 3 -14 6 -6 3 7 2 16 -1 19 -3 4 -6 -2 -5 -13z"/>
<path d="M4775 3980 c-3 -5 -1 -10 4 -10 6 0 11 5 11 10 0 6 -2 10 -4 10 -3 0
-8 -4 -11 -10z"/>
<path d="M5425 3900 c-3 -5 -1 -10 4 -10 6 0 11 5 11 10 0 6 -2 10 -4 10 -3 0
-8 -4 -11 -10z"/>
<path d="M6105 3890 c-3 -5 -2 -10 4 -10 5 0 13 5 16 10 3 6 2 10 -4 10 -5 0
-13 -4 -16 -10z"/>
<path d="M4690 3880 c0 -5 5 -10 10 -10 6 0 10 5 10 10 0 6 -4 10 -10 10 -5 0
-10 -4 -10 -10z"/>
<path d="M5085 3880 c-3 -5 -1 -10 4 -10 6 0 11 5 11 10 0 6 -2 10 -4 10 -3 0
-8 -4 -11 -10z"/>
<path d="M3978 3843 c7 -3 16 -2 19 1 4 3 -2 6 -13 5 -11 0 -14 -3 -6 -6z"/>
<path d="M5190 3830 c0 -5 5 -10 11 -10 5 0 7 5 4 10 -3 6 -8 10 -11 10 -2 0
-4 -4 -4 -10z"/>
<path d="M2957 3807 c-7 -19 0 -97 12 -130 7 -19 9 -16 15 20 4 23 4 48 0 54
-4 7 -10 26 -14 43 -5 25 -7 27 -13 13z"/>
<path d="M3350 3780 c0 -5 5 -10 11 -10 5 0 7 5 4 10 -3 6 -8 10 -11 10 -2 0
-4 -4 -4 -10z"/>
<path d="M3980 3760 c0 -5 5 -10 10 -10 6 0 10 5 10 10 0 6 -4 10 -10 10 -5 0
-10 -4 -10 -10z"/>
<path d="M5950 3651 c0 -5 5 -13 10 -16 6 -3 10 -2 10 4 0 5 -4 13 -10 16 -5
3 -10 2 -10 -4z"/>
<path d="M2890 3630 c0 -5 5 -10 10 -10 6 0 10 5 10 10 0 6 -4 10 -10 10 -5 0
-10 -4 -10 -10z"/>
<path d="M4760 3435 c-7 -9 -11 -18 -8 -20 3 -3 11 1 18 10 7 9 11 18 8 20 -3
3 -11 -1 -18 -10z"/>
<path d="M3547 3433 c-3 -5 -8 -27 -12 -49 -8 -55 16 -68 40 -22 22 44 20 78
-4 78 -11 0 -22 -3 -24 -7z"/>
<path d="M4187 3434 c-13 -13 -7 -24 14 -24 11 0 19 5 17 12 -5 14 -22 21 -31
12z"/>
<path d="M3730 3355 c0 -2 9 -9 20 -15 16 -9 18 -8 14 5 -5 13 -34 22 -34 10z"/>
<path d="M5170 3200 c0 -5 5 -10 10 -10 6 0 10 5 10 10 0 6 -4 10 -10 10 -5 0
-10 -4 -10 -10z"/>
<path d="M5152 3169 c2 -7 10 -15 17 -17 8 -3 12 1 9 9 -2 7 -10 15 -17 17 -8
3 -12 -1 -9 -9z"/>
</g>
</svg>
